<?xml version="1.0" standalone="no"?>
<svg version="1.0" xmlns="http://www.w3.org/2000/svg" width="512.000000pt" height="512.000000pt"
    viewBox="0 0 512.000000 512.000000" preserveAspectRatio="xMidYMid meet">

    <g transform="translate(0.000000,512.000000) scale(0.100000,-0.100000)" fill="#000000"
        stroke="none">
        <path d="M592 4520 c-70 -25 -109 -50 -158 -102 -91 -96 -114 -170 -114 -370
l0 -138 2240 0 2240 0 0 138 c0 158 -15 232 -61 304 -42 64 -110 125 -177 156
l-57 27 -1930 2 c-1875 2 -1931 2 -1983 -17z m2913 -194 c86 -36 84 -160 -3
-202 -51 -24 -98 -8 -135 46 -35 50 -11 131 46 155 41 18 50 18 92 1z m370
-26 c83 -83 -10 -222 -118 -176 -40 16 -67 59 -67 106 0 42 15 67 53 91 43 27
92 19 132 -21z m338 0 c53 -59 34 -146 -40 -176 -69 -29 -143 21 -143 98 0 50
13 74 53 99 44 27 93 19 130 -21z" />
        <path d="M320 2342 c0 -1549 -3 -1474 61 -1574 42 -64 110 -125 177 -156 l57
-27 1945 0 1945 0 57 27 c67 31 135 92 177 156 64 100 61 25 61 1574 l0 1408
-2240 0 -2240 0 0 -1408z m2659 1013 c31 -15 41 -33 41 -69 0 -13 -173 -513
-385 -1112 -407 -1148 -401 -1134 -461 -1134 -33 0 -74 42 -74 76 0 30 765
2200 783 2223 11 13 43 29 60 30 4 1 21 -6 36 -14z m-1043 -243 c8 -9 14 -31
14 -49 0 -28 -45 -81 -376 -443 -206 -226 -374 -415 -372 -420 2 -5 156 -176
343 -381 187 -204 355 -390 373 -412 39 -49 42 -88 7 -122 -28 -29 -61 -32
-93 -9 -12 8 -183 192 -379 407 -196 216 -376 413 -400 439 -79 86 -101 53
367 566 261 286 419 452 433 454 29 5 67 -9 83 -30z m1764 -424 c467 -513 446
-480 367 -566 -24 -26 -204 -223 -400 -439 -196 -215 -367 -399 -379 -407 -12
-9 -33 -16 -46 -16 -34 0 -72 43 -72 82 0 29 41 78 375 443 206 226 374 413
375 417 0 4 -169 193 -375 419 -330 362 -375 414 -375 442 1 54 44 89 97 79
15 -3 165 -160 433 -454z" />
    </g>
</svg>
